<svg xmlns="http://www.w3.org/2000/svg" viewBox="0 0 480 300" width="480" height="300" font-family="Arial, 'Segoe UI', sans-serif">
  <defs>
    <!-- Sky gradient: deep violet 鈫?warm amber -->
    <linearGradient id="sky" x1="0" y1="0" x2="0" y2="1">
      <stop offset="0%"   stop-color="#1a0533"/>
      <stop offset="32%"  stop-color="#4a1060"/>
      <stop offset="70%"  stop-color="#c75000"/>
      <stop offset="100%" stop-color="#ff8c00"/>
    </linearGradient>

    <!-- Left path glow: teal -->
    <linearGradient id="pathLeft" x1="0" y1="0" x2="0" y2="1">
      <stop offset="0%" stop-color="#4fc3c3" stop-opacity="0.9"/>
      <stop offset="100%" stop-color="#4fc3c3" stop-opacity="0.15"/>
    </linearGradient>

    <!-- Right path glow: pink -->
    <linearGradient id="pathRight" x1="0" y1="0" x2="0" y2="1">
      <stop offset="0%" stop-color="#ff6b9d" stop-opacity="0.9"/>
      <stop offset="100%" stop-color="#ff6b9d" stop-opacity="0.15"/>
    </linearGradient>

    <!-- Button left -->
    <linearGradient id="btnLeft" x1="0" y1="0" x2="1" y2="0">
      <stop offset="0%" stop-color="#1a6b7a"/>
      <stop offset="100%" stop-color="#0e9aa7"/>
    </linearGradient>

    <!-- Button right -->
    <linearGradient id="btnRight" x1="0" y1="0" x2="1" y2="0">
      <stop offset="0%" stop-color="#c0305a"/>
      <stop offset="100%" stop-color="#e85d8a"/>
    </linearGradient>

    <!-- Story box blur effect -->
    <filter id="softBlur" x="-5%" y="-5%" width="110%" height="110%">
      <feGaussianBlur stdDeviation="1.2"/>
    </filter>

    <!-- Glow for paths -->
    <filter id="pathGlow" x="-20%" y="-20%" width="140%" height="140%">
      <feGaussianBlur stdDeviation="2.5" result="blur"/>
      <feMerge><feMergeNode in="blur"/><feMergeNode in="SourceGraphic"/></feMerge>
    </filter>

    <!-- Star glow -->
    <filter id="starGlow" x="-50%" y="-50%" width="200%" height="200%">
      <feGaussianBlur stdDeviation="1.2" result="blur"/>
      <feMerge><feMergeNode in="blur"/><feMergeNode in="SourceGraphic"/></feMerge>
    </filter>

    <!-- Clip for scene -->
    <clipPath id="sceneClip">
      <rect width="480" height="300"/>
    </clipPath>

    <!-- Character silhouette -->
    <symbol id="character" viewBox="-12 -40 24 40">
      <!-- Head -->
      <circle cx="0" cy="-34" r="6" fill="#1a0533"/>
      <!-- Body -->
      <rect x="-5" y="-28" width="10" height="16" rx="2" fill="#1a0533"/>
      <!-- Left leg -->
      <rect x="-5" y="-13" width="4" height="13" rx="2" fill="#1a0533"/>
      <!-- Right leg -->
      <rect x="1" y="-13" width="4" height="13" rx="2" fill="#1a0533"/>
      <!-- Left arm -->
      <rect x="-10" y="-27" width="5" height="3" rx="1.5" fill="#1a0533"/>
      <!-- Right arm -->
      <rect x="5" y="-27" width="5" height="3" rx="1.5" fill="#1a0533"/>
    </symbol>
  </defs>

  <!-- BACKGROUND SKY -->
  <rect width="480" height="300" fill="url(#sky)"/>

  <!-- STARS left side teal-tinted -->
  <g filter="url(#starGlow)">
    <circle cx="18"  cy="18"  r="1.2" fill="#b0f0f0" opacity="0.9"/>
    <circle cx="42"  cy="9"   r="0.8" fill="#c8fafa" opacity="0.8"/>
    <circle cx="66"  cy="24"  r="1.0" fill="#4fc3c3" opacity="0.95"/>
    <circle cx="30"  cy="42"  r="0.7" fill="#b0f0f0" opacity="0.7"/>
    <circle cx="88"  cy="14"  r="1.3" fill="#c8fafa" opacity="0.85"/>
    <circle cx="110" cy="32"  r="0.9" fill="#4fc3c3" opacity="0.8"/>
    <circle cx="52"  cy="55"  r="0.6" fill="#b0f0f0" opacity="0.6"/>
    <circle cx="75"  cy="48"  r="1.0" fill="#c8fafa" opacity="0.75"/>
    <circle cx="12"  cy="62"  r="0.8" fill="#4fc3c3" opacity="0.65"/>
    <line x1="66" y1="21" x2="66" y2="27" stroke="#4fc3c3" stroke-width="0.8" opacity="0.9"/>
    <line x1="63" y1="24" x2="69" y2="24" stroke="#4fc3c3" stroke-width="0.8" opacity="0.9"/>
    <line x1="88" y1="11" x2="88" y2="17" stroke="#c8fafa" stroke-width="0.7" opacity="0.85"/>
    <line x1="85" y1="14" x2="91" y2="14" stroke="#c8fafa" stroke-width="0.7" opacity="0.85"/>
  </g>

  <!-- STARS right side pink-tinted -->
  <g filter="url(#starGlow)">
    <circle cx="390" cy="16"  r="1.1" fill="#ffb3cc" opacity="0.9"/>
    <circle cx="415" cy="28"  r="0.9" fill="#ff6b9d" opacity="0.8"/>
    <circle cx="440" cy="12"  r="1.3" fill="#ffd0e0" opacity="0.85"/>
    <circle cx="462" cy="38"  r="0.8" fill="#ffb3cc" opacity="0.75"/>
    <circle cx="430" cy="50"  r="0.7" fill="#ff6b9d" opacity="0.7"/>
    <circle cx="405" cy="45"  r="1.0" fill="#ffd0e0" opacity="0.8"/>
    <circle cx="455" cy="22"  r="0.6" fill="#ffb3cc" opacity="0.65"/>
    <circle cx="370" cy="35"  r="0.9" fill="#ff6b9d" opacity="0.6"/>
    <circle cx="478" cy="55"  r="0.7" fill="#ffd0e0" opacity="0.55"/>
    <line x1="440" y1="9"  x2="440" y2="15" stroke="#ffd0e0" stroke-width="0.8" opacity="0.9"/>
    <line x1="437" y1="12" x2="443" y2="12" stroke="#ffd0e0" stroke-width="0.8" opacity="0.9"/>
    <line x1="415" y1="25" x2="415" y2="31" stroke="#ff6b9d" stroke-width="0.7" opacity="0.8"/>
    <line x1="412" y1="28" x2="418" y2="28" stroke="#ff6b9d" stroke-width="0.7" opacity="0.8"/>
  </g>

  <!-- Central stars neutral warm white -->
  <g filter="url(#starGlow)">
    <circle cx="200" cy="20"  r="1.0" fill="#fff5e0" opacity="0.75"/>
    <circle cx="240" cy="12"  r="0.8" fill="#ffe0b0" opacity="0.8"/>
    <circle cx="270" cy="30"  r="0.9" fill="#fff5e0" opacity="0.7"/>
    <circle cx="220" cy="45"  r="0.7" fill="#ffe0b0" opacity="0.6"/>
    <circle cx="255" cy="50"  r="0.6" fill="#fff5e0" opacity="0.55"/>
  </g>

  <!-- DIVERGING PATHS perspective Bezier -->
  <!-- Left path arcs toward bottom-left -->
  <g filter="url(#pathGlow)">
    <path d="M 240 218 Q 180 210 80 285"
          fill="none" stroke="url(#pathLeft)" stroke-width="10"
          stroke-linecap="round" opacity="0.85"/>
    <path d="M 240 218 Q 180 210 80 285"
          fill="none" stroke="#4fc3c3" stroke-width="2.5"
          stroke-linecap="round" stroke-dasharray="6 5" opacity="0.6"/>
  </g>

  <!-- Right path arcs toward bottom-right -->
  <g filter="url(#pathGlow)">
    <path d="M 240 218 Q 300 210 400 285"
          fill="none" stroke="url(#pathRight)" stroke-width="10"
          stroke-linecap="round" opacity="0.85"/>
    <path d="M 240 218 Q 300 210 400 285"
          fill="none" stroke="#ff6b9d" stroke-width="2.5"
          stroke-linecap="round" stroke-dasharray="6 5" opacity="0.6"/>
  </g>

  <!-- Stem path from character feet to fork -->
  <path d="M 232 242 L 236 222 L 244 222 L 248 242"
        fill="#2a0845" opacity="0.6"/>

  <!-- SILHOUETTE LANDSCAPE -->
  <!-- Back hills -->
  <ellipse cx="100" cy="270" rx="130" ry="50" fill="#2a0845" opacity="0.75"/>
  <ellipse cx="380" cy="275" rx="140" ry="55" fill="#2a0845" opacity="0.75"/>
  <ellipse cx="240" cy="285" rx="100" ry="40" fill="#2a0845" opacity="0.6"/>

  <!-- Front hills -->
  <ellipse cx="0"   cy="295" rx="90"  ry="45" fill="#1a0533"/>
  <ellipse cx="480" cy="295" rx="90"  ry="45" fill="#1a0533"/>

  <!-- Ground floor -->
  <rect x="0" y="268" width="480" height="32" fill="#1a0533"/>

  <!-- Trees left cluster -->
  <g fill="#1a0533">
    <rect x="30" y="235" width="5" height="35" rx="2"/>
    <ellipse cx="32.5" cy="228" rx="14" ry="18"/>
    <rect x="55" y="240" width="4" height="30" rx="2"/>
    <ellipse cx="57" cy="234" rx="11" ry="14"/>
    <rect x="14" y="248" width="3" height="22" rx="1.5"/>
    <ellipse cx="15.5" cy="243" rx="9" ry="11"/>
    <rect x="76" y="232" width="3" height="38" rx="1.5"/>
    <ellipse cx="77.5" cy="225" rx="7" ry="12"/>
  </g>

  <!-- Trees right cluster -->
  <g fill="#1a0533">
    <rect x="445" y="235" width="5" height="35" rx="2"/>
    <ellipse cx="447.5" cy="228" rx="14" ry="18"/>
    <rect x="420" y="240" width="4" height="30" rx="2"/>
    <ellipse cx="422" cy="234" rx="11" ry="14"/>
    <rect x="462" y="246" width="3" height="24" rx="1.5"/>
    <ellipse cx="463.5" cy="241" rx="8" ry="11"/>
    <rect x="400" y="232" width="3" height="38" rx="1.5"/>
    <ellipse cx="401.5" cy="225" rx="7" ry="12"/>
  </g>

  <!-- Mid-distance bush shapes -->
  <g fill="#220640" opacity="0.9">
    <ellipse cx="140" cy="270" rx="30" ry="12"/>
    <ellipse cx="330" cy="268" rx="28" ry="10"/>
    <ellipse cx="190" cy="272" rx="18" ry="8"/>
    <ellipse cx="290" cy="271" rx="20" ry="9"/>
  </g>

  <!-- CHARACTER SILHOUETTE -->
  <use href="#character" x="240" y="242" width="24" height="40"/>
  <!-- Subtle aura -->
  <ellipse cx="240" cy="248" rx="18" ry="22" fill="#ff8c00" opacity="0.06"/>

  <!-- STORY TEXT BOX -->
  <rect x="18" y="14" width="384" height="52" rx="10"
        fill="#000000" opacity="0.3" filter="url(#softBlur)"/>
  <rect x="16" y="12" width="384" height="52" rx="10"
        fill="#110228" opacity="0.82"/>
  <rect x="16" y="12" width="384" height="2" rx="1"
        fill="#ff8c00" opacity="0.6"/>

  <text x="32" y="32"
        font-family="Arial, 'Segoe UI', sans-serif"
        font-size="11" fill="#f5e6d3" opacity="0.85"
        font-style="italic" letter-spacing="0.3">
    Bu峄昳 chi峄乽 t脿, 谩nh ho脿ng h么n nhu峄檓 v脿ng con 膽瓢峄漬g 膽岷 quen thu峄檆.
  </text>
  <text x="32" y="50"
        font-family="Arial, 'Segoe UI', sans-serif"
        font-size="12.5" fill="#ffffff" font-weight="bold" letter-spacing="0.2">
    An 膽峄﹏g tr瓢峄沜 quy岷縯 膽峄媙h kh贸 kh膬n nh岷 膽峄漣 m矛nh鈥n  </text>
  <!-- Typewriter cursor blink -->
  <text x="374" y="50"
        font-family="Arial, 'Segoe UI', sans-serif"
        font-size="12.5" fill="#ff8c00" font-weight="bold">
    <animate attributeName="opacity" values="1;0;1" dur="1.1s" repeatCount="indefinite"/>
    _
  </text>

  <!-- CHAPTER BADGE -->
  <rect x="16" y="72" width="80" height="22" rx="11"
        fill="#ff8c00"/>
  <rect x="17" y="73" width="78" height="20" rx="10"
        fill="#c75000"/>
  <text x="56" y="88"
        font-family="Arial, 'Segoe UI', sans-serif"
        font-size="10.5" fill="#fff5e0" font-weight="700"
        text-anchor="middle" letter-spacing="1.2">
    CH漂茽NG 2
  </text>

  <!-- CHOICE BUTTONS -->

  <!-- Left button shadow -->
  <rect x="25" y="256" width="196" height="38" rx="12"
        fill="#000000" opacity="0.35"/>
  <!-- Left button -->
  <rect x="24" y="254" width="196" height="38" rx="12"
        fill="url(#btnLeft)"/>
  <rect x="24" y="254" width="196" height="38" rx="12"
        fill="none" stroke="#4fc3c3" stroke-width="1.2" opacity="0.5"/>
  <rect x="28" y="256" width="188" height="8" rx="6"
        fill="#ffffff" opacity="0.08"/>

  <!-- Heart left -->
  <text x="36" y="278" font-size="14">馃挋</text>

  <text x="148" y="272"
        font-family="Arial, 'Segoe UI', sans-serif"
        font-size="9.5" fill="#e0f7f8" font-weight="700"
        text-anchor="middle" letter-spacing="0.3">
    N贸i th岷璽 v峄沬 b岷 th芒n
  </text>
  <text x="148" y="284"
        font-family="Arial, 'Segoe UI', sans-serif"
        font-size="8" fill="#a0e0e8" font-style="italic"
        text-anchor="middle" opacity="0.85">
    鈫?L峄盿 ch峄峮 trung th峄眂
  </text>

  <!-- Right button shadow -->
  <rect x="261" y="256" width="196" height="38" rx="12"
        fill="#000000" opacity="0.35"/>
  <!-- Right button -->
  <rect x="260" y="254" width="196" height="38" rx="12"
        fill="url(#btnRight)"/>
  <rect x="260" y="254" width="196" height="38" rx="12"
        fill="none" stroke="#ff6b9d" stroke-width="1.2" opacity="0.5"/>
  <rect x="264" y="256" width="188" height="8" rx="6"
        fill="#ffffff" opacity="0.08"/>

  <!-- Heart right -->
  <text x="268" y="278" font-size="14">馃挄</text>

  <text x="376" y="272"
        font-family="Arial, 'Segoe UI', sans-serif"
        font-size="9.5" fill="#ffe0ee" font-weight="700"
        text-anchor="middle" letter-spacing="0.3">
    Gi岷?v峄?kh么ng bi岷縯
  </text>
  <text x="376" y="284"
        font-family="Arial, 'Segoe UI', sans-serif"
        font-size="8" fill="#f0a0bf" font-style="italic"
        text-anchor="middle" opacity="0.85">
    鈫?L峄盿 ch峄峮 n茅 tr谩nh
  </text>

  <!-- PATH LABELS near fork -->
  <text x="130" y="240"
        font-family="Arial, 'Segoe UI', sans-serif"
        font-size="8.5" fill="#4fc3c3" font-weight="600"
        text-anchor="middle" opacity="0.9" letter-spacing="0.5">
    CON 膼漂峄淣G TH岷琓
  </text>
  <text x="350" y="240"
        font-family="Arial, 'Segoe UI', sans-serif"
        font-size="8.5" fill="#ff6b9d" font-weight="600"
        text-anchor="middle" opacity="0.9" letter-spacing="0.5">
    CON 膼漂峄淣G TR脕NH
  </text>

  <!-- AMBIENT HORIZON GLOW -->
  <ellipse cx="240" cy="195" rx="55" ry="18"
           fill="#ff8c00" opacity="0.12"/>
  <ellipse cx="240" cy="198" rx="30" ry="10"
           fill="#ffb347" opacity="0.14"/>
  <line x1="0" y1="210" x2="480" y2="210"
        stroke="#ff8c00" stroke-width="0.8" opacity="0.2"/>

  <!-- FLOATING SPARKLES near character -->
  <g opacity="0.7">
    <line x1="206" y1="215" x2="206" y2="221" stroke="#4fc3c3" stroke-width="1" opacity="0.8"/>
    <line x1="203" y1="218" x2="209" y2="218" stroke="#4fc3c3" stroke-width="1" opacity="0.8"/>
    <line x1="274" y1="213" x2="274" y2="219" stroke="#ff6b9d" stroke-width="1" opacity="0.8"/>
    <line x1="271" y1="216" x2="277" y2="216" stroke="#ff6b9d" stroke-width="1" opacity="0.8"/>
    <circle cx="215" cy="200" r="1.2" fill="#4fc3c3" opacity="0.6">
      <animate attributeName="opacity" values="0.6;0.2;0.6" dur="2.3s" repeatCount="indefinite"/>
    </circle>
    <circle cx="265" cy="197" r="1.2" fill="#ff6b9d" opacity="0.6">
      <animate attributeName="opacity" values="0.6;0.2;0.6" dur="1.9s" repeatCount="indefinite"/>
    </circle>
    <circle cx="232" cy="192" r="0.9" fill="#fff5e0" opacity="0.5">
      <animate attributeName="opacity" values="0.5;0.15;0.5" dur="2.7s" repeatCount="indefinite"/>
    </circle>
  </g>
</svg>